<svg width="32" height="32" viewBox="0 0 32 32" fill="none" xmlns="http://www.w3.org/2000/svg">
<path d="M20.0755 0.128605C16.0446 -0.126043 11.9958 -0.00252381 7.98233 0.499162C4.0699 0.988216 0.988216 4.0699 0.499163 7.98233C-0.166388 13.3067 -0.166387 18.6933 0.499163 24.0177C0.988216 27.9301 4.0699 31.0118 7.98233 31.5008C9.31473 31.6674 10.651 31.7923 11.9893 31.8755C10.7979 23.1218 10.2695 16.1583 10.8086 16.0826C11.3554 16.0057 12.8003 23.0465 14.0819 31.9715C17.398 32.07 20.7197 31.9131 24.0177 31.5008C27.9301 31.0118 31.0118 27.9301 31.5008 24.0177C32.1664 18.6933 32.1664 13.3067 31.5008 7.98233C31.0118 4.0699 27.9301 0.988216 24.0177 0.499162C23.3902 0.420731 22.7619 0.351545 22.1329 0.291599C20.8502 9.23152 19.4026 16.2889 18.8551 16.2119C18.3101 16.1353 18.8563 9.01816 20.0755 0.128605Z" fill="url(#paint0_linear_18_617)"/>
<defs>
<linearGradient id="paint0_linear_18_617" x1="-0.426106" y1="-0.426106" x2="32.4261" y2="32.4261" gradientUnits="userSpaceOnUse">
<stop stop-color="#2563EB"/>
<stop offset="0.359" stop-color="#4D28B4"/>
<stop offset="0.759" stop-color="#174C7C"/>
<stop offset="1" stop-color="#3C0EF2" stop-opacity="0.57"/>
</linearGradient>
</defs>
</svg>
