<svg width="121" height="32" viewBox="0 0 121 32" fill="none" xmlns="http://www.w3.org/2000/svg">
<path d="M42.212 21V11.2H43.682L51.074 19.222L50.962 19.348C50.9153 19.0773 50.8733 18.788 50.836 18.48C50.808 18.172 50.7847 17.8547 50.766 17.528C50.7473 17.192 50.7287 16.8513 50.71 16.506C50.7007 16.1513 50.6913 15.8013 50.682 15.456C50.682 15.1013 50.682 14.756 50.682 14.42V11.2H52.194V21H50.696L43.402 13.272L43.444 13.076C43.472 13.356 43.4953 13.636 43.514 13.916C43.542 14.196 43.57 14.4713 43.598 14.742C43.626 15.0127 43.6493 15.274 43.668 15.526C43.6867 15.778 43.7007 16.0253 43.71 16.268C43.7193 16.5013 43.724 16.7207 43.724 16.926V21H42.212ZM56.6222 21V11.2H64.2102V12.656H58.1342V19.544H64.2102V21H56.6222ZM57.4202 16.702V15.246H63.4402V16.702H57.4202ZM68.3253 21V11.2H73.3233C74.0886 11.2 74.7279 11.298 75.2413 11.494C75.7639 11.6807 76.1559 11.956 76.4173 12.32C76.6786 12.684 76.8093 13.132 76.8093 13.664C76.8093 14.1867 76.6459 14.6347 76.3193 15.008C75.9926 15.3813 75.5166 15.6473 74.8913 15.806L74.9613 15.526C75.3813 15.6193 75.7733 15.7733 76.1373 15.988C76.5013 16.2027 76.7906 16.4873 77.0053 16.842C77.2199 17.1967 77.3273 17.6213 77.3273 18.116C77.3273 18.6573 77.2246 19.1147 77.0193 19.488C76.8233 19.852 76.5479 20.146 76.1933 20.37C75.8386 20.594 75.4373 20.7573 74.9893 20.86C74.5506 20.9533 74.0979 21 73.6313 21H68.3253ZM69.8373 19.544H73.6453C74.0746 19.544 74.4479 19.4927 74.7653 19.39C75.0919 19.278 75.3439 19.1147 75.5213 18.9C75.6986 18.676 75.7873 18.4053 75.7873 18.088C75.7873 17.7427 75.6799 17.4673 75.4653 17.262C75.2506 17.0567 74.9706 16.9073 74.6253 16.814C74.2893 16.7113 73.9393 16.66 73.5753 16.66H69.8373V19.544ZM69.8373 15.204H73.5053C73.8226 15.204 74.1166 15.1527 74.3873 15.05C74.6579 14.938 74.8726 14.784 75.0313 14.588C75.1899 14.392 75.2693 14.1633 75.2693 13.902C75.2693 13.4633 75.0873 13.146 74.7233 12.95C74.3593 12.754 73.8973 12.656 73.3373 12.656H69.8373V15.204ZM85.5205 21.084C84.5965 21.084 83.7845 20.888 83.0845 20.496C82.3938 20.104 81.8525 19.5673 81.4605 18.886C81.0685 18.2047 80.8725 17.43 80.8725 16.562V11.186H82.3845V16.492C82.3845 17.0893 82.5245 17.626 82.8045 18.102C83.0845 18.5687 83.4625 18.9373 83.9385 19.208C84.4145 19.4787 84.9418 19.614 85.5205 19.614C86.1365 19.614 86.6871 19.4787 87.1725 19.208C87.6578 18.9373 88.0405 18.5687 88.3205 18.102C88.6005 17.626 88.7405 17.0893 88.7405 16.492V11.186H90.1825V16.562C90.1825 17.43 89.9865 18.2047 89.5945 18.886C89.2025 19.5673 88.6565 20.104 87.9565 20.496C87.2565 20.888 86.4445 21.084 85.5205 21.084ZM94.4522 21V11.2H95.9642V19.544H101.97V21H94.4522ZM104.665 21L109.173 11.2H110.881L115.361 21H113.709L110.713 14.49C110.647 14.3407 110.573 14.1727 110.489 13.986C110.405 13.79 110.321 13.5893 110.237 13.384C110.153 13.1787 110.069 12.9733 109.985 12.768C109.91 12.5627 109.845 12.3667 109.789 12.18L110.195 12.166C110.12 12.3713 110.041 12.5813 109.957 12.796C109.882 13.0013 109.803 13.2067 109.719 13.412C109.635 13.608 109.551 13.804 109.467 14C109.383 14.1867 109.299 14.3687 109.215 14.546L106.247 21H104.665ZM106.639 18.662L107.227 17.206H112.659L113.009 18.662H106.639Z" fill="#020617"/>
<path d="M20.0755 0.128605C16.0446 -0.126043 11.9958 -0.00252381 7.98233 0.499162C4.0699 0.988216 0.988216 4.0699 0.499163 7.98233C-0.166388 13.3067 -0.166387 18.6933 0.499163 24.0177C0.988216 27.9301 4.0699 31.0118 7.98233 31.5008C9.31473 31.6674 10.651 31.7923 11.9893 31.8755C10.7979 23.1218 10.2695 16.1583 10.8086 16.0826C11.3554 16.0057 12.8003 23.0465 14.0819 31.9715C17.398 32.07 20.7197 31.9131 24.0177 31.5008C27.9301 31.0118 31.0118 27.9301 31.5008 24.0177C32.1664 18.6933 32.1664 13.3067 31.5008 7.98233C31.0118 4.0699 27.9301 0.988216 24.0177 0.499162C23.3902 0.420731 22.7619 0.351545 22.1329 0.291599C20.8502 9.23152 19.4026 16.2889 18.8551 16.2119C18.3101 16.1353 18.8563 9.01816 20.0755 0.128605Z" fill="url(#paint0_linear_18_1225)"/>
<defs>
<linearGradient id="paint0_linear_18_1225" x1="-0.426106" y1="-0.426106" x2="32.4261" y2="32.4261" gradientUnits="userSpaceOnUse">
<stop stop-color="#2563EB"/>
<stop offset="0.359" stop-color="#4D28B4"/>
<stop offset="0.759" stop-color="#174C7C"/>
<stop offset="1" stop-color="#3C0EF2" stop-opacity="0.57"/>
</linearGradient>
</defs>
</svg>
